<?xml version="1.0" encoding="UTF-8"?>
<?xml-stylesheet href="https://cdnjs.cloudflare.com/ajax/libs/font-awesome/6.6.0/css/all.min.css" type="text/css"?>
<svg aria-roledescription="flowchart-v2" role="graphics-document document" viewBox="0 0 889.88330078125 176" style="max-width: 100%;" class="flowchart" xmlns="http://www.w3.org/2000/svg" width="100%" id="graph-div" height="100%" xmlns:xlink="http://www.w3.org/1999/xlink"><style>#graph-div{font-family:"trebuchet ms",verdana,arial,sans-serif;font-size:16px;fill:#000000;}#graph-div .error-icon{fill:#552222;}#graph-div .error-text{fill:#552222;stroke:#552222;}#graph-div .edge-thickness-normal{stroke-width:1px;}#graph-div .edge-thickness-thick{stroke-width:3.5px;}#graph-div .edge-pattern-solid{stroke-dasharray:0;}#graph-div .edge-thickness-invisible{stroke-width:0;fill:none;}#graph-div .edge-pattern-dashed{stroke-dasharray:3;}#graph-div .edge-pattern-dotted{stroke-dasharray:2;}#graph-div .marker{fill:#666;stroke:#666;}#graph-div .marker.cross{stroke:#666;}#graph-div svg{font-family:"trebuchet ms",verdana,arial,sans-serif;font-size:16px;}#graph-div p{margin:0;}#graph-div .label{font-family:"trebuchet ms",verdana,arial,sans-serif;color:#000000;}#graph-div .cluster-label text{fill:#333;}#graph-div .cluster-label span{color:#333;}#graph-div .cluster-label span p{background-color:transparent;}#graph-div .label text,#graph-div span{fill:#000000;color:#000000;}#graph-div .node rect,#graph-div .node circle,#graph-div .node ellipse,#graph-div .node polygon,#graph-div .node path{fill:#eee;stroke:#999;stroke-width:1px;}#graph-div .rough-node .label text,#graph-div .node .label text,#graph-div .image-shape .label,#graph-div .icon-shape .label{text-anchor:middle;}#graph-div .node .katex path{fill:#000;stroke:#000;stroke-width:1px;}#graph-div .rough-node .label,#graph-div .node .label,#graph-div .image-shape .label,#graph-div .icon-shape .label{text-align:center;}#graph-div .node.clickable{cursor:pointer;}#graph-div .root .anchor path{fill:#666!important;stroke-width:0;stroke:#666;}#graph-div .arrowheadPath{fill:#333333;}#graph-div .edgePath .path{stroke:#666;stroke-width:2.0px;}#graph-div .flowchart-link{stroke:#666;fill:none;}#graph-div .edgeLabel{background-color:white;text-align:center;}#graph-div .edgeLabel p{background-color:white;}#graph-div .edgeLabel rect{opacity:0.5;background-color:white;fill:white;}#graph-div .labelBkg{background-color:rgba(255, 255, 255, 0.5);}#graph-div .cluster rect{fill:hsl(0, 0%, 98.9215686275%);stroke:#707070;stroke-width:1px;}#graph-div .cluster text{fill:#333;}#graph-div .cluster span{color:#333;}#graph-div div.mermaidTooltip{position:absolute;text-align:center;max-width:200px;padding:2px;font-family:"trebuchet ms",verdana,arial,sans-serif;font-size:12px;background:hsl(-160, 0%, 93.3333333333%);border:1px solid #707070;border-radius:2px;pointer-events:none;z-index:100;}#graph-div .flowchartTitleText{text-anchor:middle;font-size:18px;fill:#000000;}#graph-div rect.text{fill:none;stroke-width:0;}#graph-div .icon-shape,#graph-div .image-shape{background-color:white;text-align:center;}#graph-div .icon-shape p,#graph-div .image-shape p{background-color:white;padding:2px;}#graph-div .icon-shape rect,#graph-div .image-shape rect{opacity:0.5;background-color:white;fill:white;}#graph-div :root{--mermaid-font-family:"trebuchet ms",verdana,arial,sans-serif;}</style><g><marker orient="auto" markerHeight="8" markerWidth="8" markerUnits="userSpaceOnUse" refY="5" refX="5" viewBox="0 0 10 10" class="marker flowchart-v2" id="graph-div_flowchart-v2-pointEnd"><path style="stroke-width: 1px; stroke-dasharray: 1px, 0px;" class="arrowMarkerPath" d="M 0 0 L 10 5 L 0 10 z"></path></marker><marker orient="auto" markerHeight="8" markerWidth="8" markerUnits="userSpaceOnUse" refY="5" refX="4.5" viewBox="0 0 10 10" class="marker flowchart-v2" id="graph-div_flowchart-v2-pointStart"><path style="stroke-width: 1px; stroke-dasharray: 1px, 0px;" class="arrowMarkerPath" d="M 0 5 L 10 10 L 10 0 z"></path></marker><marker orient="auto" markerHeight="11" markerWidth="11" markerUnits="userSpaceOnUse" refY="5" refX="11" viewBox="0 0 10 10" class="marker flowchart-v2" id="graph-div_flowchart-v2-circleEnd"><circle style="stroke-width: 1px; stroke-dasharray: 1px, 0px;" class="arrowMarkerPath" r="5" cy="5" cx="5"></circle></marker><marker orient="auto" markerHeight="11" markerWidth="11" markerUnits="userSpaceOnUse" refY="5" refX="-1" viewBox="0 0 10 10" class="marker flowchart-v2" id="graph-div_flowchart-v2-circleStart"><circle style="stroke-width: 1px; stroke-dasharray: 1px, 0px;" class="arrowMarkerPath" r="5" cy="5" cx="5"></circle></marker><marker orient="auto" markerHeight="11" markerWidth="11" markerUnits="userSpaceOnUse" refY="5.2" refX="12" viewBox="0 0 11 11" class="marker cross flowchart-v2" id="graph-div_flowchart-v2-crossEnd"><path style="stroke-width: 2px; stroke-dasharray: 1px, 0px;" class="arrowMarkerPath" d="M 1,1 l 9,9 M 10,1 l -9,9"></path></marker><marker orient="auto" markerHeight="11" markerWidth="11" markerUnits="userSpaceOnUse" refY="5.2" refX="-1" viewBox="0 0 11 11" class="marker cross flowchart-v2" id="graph-div_flowchart-v2-crossStart"><path style="stroke-width: 2px; stroke-dasharray: 1px, 0px;" class="arrowMarkerPath" d="M 1,1 l 9,9 M 10,1 l -9,9"></path></marker><g class="root"><g class="clusters"></g><g class="edgePaths"><path marker-end="url(#graph-div_flowchart-v2-pointEnd)" style="" class="edge-thickness-normal edge-pattern-solid edge-thickness-normal edge-pattern-solid flowchart-link" id="L_B_FE_0" d="M134.85,61.461L139.017,59.717C143.183,57.974,151.517,54.487,159.85,52.743C168.183,51,176.517,51,184.85,51C193.183,51,201.517,51,207.767,51C214.017,51,218.183,51,221.683,51C225.183,51,228.017,51,229.433,51L230.85,51"></path><path marker-end="url(#graph-div_flowchart-v2-pointEnd)" style="" class="edge-thickness-normal edge-pattern-dotted edge-thickness-normal edge-pattern-solid flowchart-link" id="L_B_E_1" d="M106.535,115L115.421,121.833C124.307,128.667,142.078,142.333,155.131,149.167C168.183,156,176.517,156,184.85,156C193.183,156,201.517,156,224.04,156C246.564,156,283.278,156,319.992,156C356.706,156,393.419,156,418.907,156C444.394,156,458.656,156,472.917,156C487.178,156,501.439,156,510.653,155.597C519.867,155.193,524.033,154.386,527.546,153.706C531.058,153.026,533.915,152.473,535.344,152.196L536.773,151.92"></path><path marker-end="url(#graph-div_flowchart-v2-pointEnd)" style="" class="edge-thickness-normal edge-pattern-solid edge-thickness-normal edge-pattern-solid flowchart-link" id="L_FE_A_2" d="M405.133,38.632L409.3,38.026C413.467,37.421,421.8,36.211,433.097,35.605C444.394,35,458.656,35,472.917,35C487.178,35,501.439,35,510.726,35C520.014,35,524.328,35,527.975,35C531.622,35,534.603,35,536.093,35L537.583,35"></path><path marker-end="url(#graph-div_flowchart-v2-pointEnd)" style="" class="edge-thickness-normal edge-pattern-dotted edge-thickness-normal edge-pattern-solid flowchart-link" id="L_FE_E_3" d="M377.181,78L386.006,82.167C394.832,86.333,412.482,94.667,428.438,98.833C444.394,103,458.656,103,472.917,103C487.178,103,501.439,103,510.653,103.933C519.867,104.866,524.033,106.731,527.592,108.325C531.15,109.918,534.1,111.239,535.574,111.899L537.049,112.559"></path><path marker-end="url(#graph-div_flowchart-v2-pointEnd)" style="" class="edge-thickness-normal edge-pattern-solid edge-thickness-normal edge-pattern-solid flowchart-link" id="L_A_F_4" d="M655.083,35L659.397,35C663.711,35,672.339,35,680.819,35C689.3,35,697.633,35,705.967,35C714.3,35,722.633,35,730.396,37.167C738.158,39.333,745.35,43.667,751.97,47.656C758.591,51.645,764.64,55.29,767.665,57.113L770.69,58.936"></path><path marker-end="url(#graph-div_flowchart-v2-pointEnd)" style="" class="edge-thickness-normal edge-pattern-dotted edge-thickness-normal edge-pattern-solid flowchart-link" id="L_E_F_5" d="M655.967,140L660.133,140C664.3,140,672.633,140,680.967,140C689.3,140,697.633,140,705.967,140C714.3,140,722.633,140,730.324,137.917C738.015,135.833,745.063,131.667,751.537,127.839C758.011,124.012,763.911,120.524,766.861,118.78L769.811,117.036"></path></g><g class="edgeLabels"><g class="edgeLabel"><g transform="translate(0, 0)" class="label"><foreignObject height="0" width="0"><div class="labelBkg" xmlns="http://www.w3.org/1999/xhtml" style="display: table-cell; white-space: nowrap; line-height: 1.5; max-width: 200px; text-align: center;"><span class="edgeLabel"></span></div></foreignObject></g></g><g transform="translate(319.9916763305664, 156)" class="edgeLabel"><g transform="translate(-17.78333282470703, -12)" class="label"><foreignObject height="24" width="35.56666564941406"><div class="labelBkg" xmlns="http://www.w3.org/1999/xhtml" style="display: table-cell; white-space: nowrap; line-height: 1.5; max-width: 200px; text-align: center;"><span class="edgeLabel"><p>Error</p></span></div></foreignObject></g></g><g class="edgeLabel"><g transform="translate(0, 0)" class="label"><foreignObject height="0" width="0"><div class="labelBkg" xmlns="http://www.w3.org/1999/xhtml" style="display: table-cell; white-space: nowrap; line-height: 1.5; max-width: 200px; text-align: center;"><span class="edgeLabel"></span></div></foreignObject></g></g><g transform="translate(472.9166793823242, 103)" class="edgeLabel"><g transform="translate(-17.78333282470703, -12)" class="label"><foreignObject height="24" width="35.56666564941406"><div class="labelBkg" xmlns="http://www.w3.org/1999/xhtml" style="display: table-cell; white-space: nowrap; line-height: 1.5; max-width: 200px; text-align: center;"><span class="edgeLabel"><p>Error</p></span></div></foreignObject></g></g><g class="edgeLabel"><g transform="translate(0, 0)" class="label"><foreignObject height="0" width="0"><div class="labelBkg" xmlns="http://www.w3.org/1999/xhtml" style="display: table-cell; white-space: nowrap; line-height: 1.5; max-width: 200px; text-align: center;"><span class="edgeLabel"></span></div></foreignObject></g></g><g class="edgeLabel"><g transform="translate(0, 0)" class="label"><foreignObject height="0" width="0"><div class="labelBkg" xmlns="http://www.w3.org/1999/xhtml" style="display: table-cell; white-space: nowrap; line-height: 1.5; max-width: 200px; text-align: center;"><span class="edgeLabel"></span></div></foreignObject></g></g></g><g class="nodes"><g transform="translate(71.42500305175781, 88)" id="flowchart-B-127" class="node default"><rect height="54" width="126.85000610351562" y="-27" x="-63.42500305175781" ry="5" rx="5" style="" class="basic label-container"></rect><g transform="translate(-48.42500305175781, -12)" style="" class="label"><rect></rect><foreignObject height="24" width="96.85000610351562"><div xmlns="http://www.w3.org/1999/xhtml" style="display: table-cell; white-space: nowrap; line-height: 1.5; max-width: 200px; text-align: center;"><span class="nodeLabel"><p>'Before' stage</p></span></div></foreignObject></g></g><g transform="translate(319.9916763305664, 51)" id="flowchart-FE-128" class="node default"><rect height="54" width="170.28334045410156" y="-27" x="-85.14167022705078" style="" class="basic label-container"></rect><g transform="translate(-55.14167022705078, -12)" style="" class="label"><rect></rect><foreignObject height="24" width="110.28334045410156"><div xmlns="http://www.w3.org/1999/xhtml" style="display: table-cell; white-space: nowrap; line-height: 1.5; max-width: 200px; text-align: center;"><span class="nodeLabel"><p>Flag Evaluation</p></span></div></foreignObject></g></g><g transform="translate(598.3333435058594, 140)" id="flowchart-E-129" class="node default"><rect height="54" width="115.26666259765625" y="-27" x="-57.633331298828125" ry="5" rx="5" style="" class="basic label-container"></rect><g transform="translate(-42.633331298828125, -12)" style="" class="label"><rect></rect><foreignObject height="24" width="85.26666259765625"><div xmlns="http://www.w3.org/1999/xhtml" style="display: table-cell; white-space: nowrap; line-height: 1.5; max-width: 200px; text-align: center;"><span class="nodeLabel"><p>'Error' stage</p></span></div></foreignObject></g></g><g transform="translate(598.3333435058594, 35)" id="flowchart-A-130" class="node default"><rect height="54" width="113.5" y="-27" x="-56.75" ry="5" rx="5" style="" class="basic label-container"></rect><g transform="translate(-41.75, -12)" style="" class="label"><rect></rect><foreignObject height="24" width="83.5"><div xmlns="http://www.w3.org/1999/xhtml" style="display: table-cell; white-space: nowrap; line-height: 1.5; max-width: 200px; text-align: center;"><span class="nodeLabel"><p>'After' stage</p></span></div></foreignObject></g></g><g transform="translate(818.9250106811523, 88)" id="flowchart-F-131" class="node default"><rect height="54" width="125.91667175292969" y="-27" x="-62.958335876464844" ry="5" rx="5" style="" class="basic label-container"></rect><g transform="translate(-47.958335876464844, -12)" style="" class="label"><rect></rect><foreignObject height="24" width="95.91667175292969"><div xmlns="http://www.w3.org/1999/xhtml" style="display: table-cell; white-space: nowrap; line-height: 1.5; max-width: 200px; text-align: center;"><span class="nodeLabel"><p>'Finally' stage</p></span></div></foreignObject></g></g></g></g></g></svg>